<svg viewBox="0 0 200 200" xmlns="http://www.w3.org/2000/svg">
  <rect width="200" height="200" rx="100" fill="#0a0f0a"/>
  <!-- Outer ring -->
  <circle cx="100" cy="100" r="90" fill="none" stroke="#0d1a0d" stroke-width="2"/>
  <circle cx="100" cy="100" r="88" fill="none" stroke="#00FF41" stroke-width="0.5" opacity="0.3"/>
  <!-- Headset silhouette -->
  <path d="M70 110 Q70 70 100 60 Q130 70 130 110" fill="none" stroke="#00FF41" stroke-width="3" stroke-linecap="round"/>
  <!-- Headset band -->
  <path d="M65 110 L65 120 Q65 130 75 130 L80 130" fill="none" stroke="#00FF41" stroke-width="2.5"/>
  <path d="M135 110 L135 120 Q135 130 125 130 L120 130" fill="none" stroke="#00FF41" stroke-width="2.5"/>
  <!-- Microphone -->
  <path d="M120 130 Q130 140 115 145" fill="none" stroke="#00FF41" stroke-width="2" stroke-linecap="round"/>
  <circle cx="113" cy="146" r="3" fill="#00FF41"/>
  <!-- Eyes (screen glow) -->
  <rect x="83" y="90" width="10" height="6" rx="1" fill="#00FF41" opacity="0.8"/>
  <rect x="107" y="90" width="10" height="6" rx="1" fill="#00FF41" opacity="0.8"/>
  <!-- Glow effect -->
  <circle cx="88" cy="93" r="12" fill="#00FF41" opacity="0.05"/>
  <circle cx="112" cy="93" r="12" fill="#00FF41" opacity="0.05"/>
  <!-- Stars -->
  <circle cx="30" cy="30" r="1.5" fill="#fff" opacity="0.5"/>
  <circle cx="170" cy="25" r="1" fill="#00e5ff" opacity="0.4"/>
  <circle cx="25" cy="165" r="1" fill="#00FF41" opacity="0.3"/>
  <circle cx="175" cy="170" r="1.5" fill="#fff" opacity="0.4"/>
  <circle cx="155" cy="50" r="0.8" fill="#00FF41" opacity="0.5"/>
  <circle cx="45" cy="150" r="0.8" fill="#00e5ff" opacity="0.3"/>
</svg>
